<svg width="24" height="24" fill="currentColor" xmlns="http://www.w3.org/2000/svg"><path d="M9.3 11.111c.712 0 1.408-.208 2-.6a3.566 3.566 0 0 0 1.326-1.595c.272-.65.344-1.364.205-2.054a3.542 3.542 0 0 0-.985-1.82 3.614 3.614 0 0 0-1.844-.974 3.642 3.642 0 0 0-2.08.203 3.59 3.59 0 0 0-1.615 1.31 3.524 3.524 0 0 0 .447 4.489A3.623 3.623 0 0 0 9.3 11.11Zm0-5.333c.356 0 .704.104 1 .3.296.195.527.472.663.797a1.757 1.757 0 0 1-.39 1.938 1.82 1.82 0 0 1-1.962.385 1.795 1.795 0 0 1-.808-.655 1.762 1.762 0 0 1 .224-2.245c.338-.333.796-.52 1.273-.52Zm7.2 7.11c.534 0 1.056-.155 1.5-.448.444-.293.79-.71.994-1.197a2.636 2.636 0 0 0-.585-2.906 2.731 2.731 0 0 0-2.942-.578 2.693 2.693 0 0 0-1.212.982 2.644 2.644 0 0 0 .336 3.367c.506.5 1.193.78 1.909.78Zm0-3.555c.178 0 .352.052.5.15a.891.891 0 0 1 .383.913.885.885 0 0 1-.247.455.904.904 0 0 1-.98.192.897.897 0 0 1-.404-.327.881.881 0 0 1 .112-1.122.906.906 0 0 1 .636-.26Zm0 4.445a4.536 4.536 0 0 0-2.754.933 6.326 6.326 0 0 0-3.224-1.696 6.373 6.373 0 0 0-3.635.357 6.284 6.284 0 0 0-2.823 2.288A6.168 6.168 0 0 0 3 19.11c0 .236.095.462.264.629a.906.906 0 0 0 1.272 0 .883.883 0 0 0 .264-.629c0-1.179.474-2.31 1.318-3.143A4.529 4.529 0 0 1 9.3 14.667c1.193 0 2.338.468 3.182 1.301a4.417 4.417 0 0 1 1.318 3.143c0 .236.095.462.264.629a.906.906 0 0 0 1.272 0 .883.883 0 0 0 .264-.629 6.074 6.074 0 0 0-.774-2.978 2.73 2.73 0 0 1 2.85-.308 2.69 2.69 0 0 1 1.11.982c.27.424.413.915.414 1.415 0 .236.095.462.264.629a.906.906 0 0 0 1.272 0 .883.883 0 0 0 .264-.629c0-1.178-.474-2.309-1.318-3.143a4.529 4.529 0 0 0-3.182-1.301Z" fill="#696D8C"/></svg>